<svg xmlns="http://www.w3.org/2000/svg" viewBox="0 0 512 512" fill="none">
  <!-- Private Zone Security — tuxedo shield mark (dark: ink, for light backgrounds) -->
  <g fill="#1C1E22">
    <!-- left lapel -->
    <path d="M84 104 C 88 262, 146 396, 248 462 L 253 466 L 213 152 Z"/>
    <!-- right lapel -->
    <path d="M428 104 C 424 262, 366 396, 264 462 L 259 466 L 299 152 Z"/>
    <!-- bow tie left wing -->
    <path d="M196 96 L 244 113 L 244 139 L 196 150 C 190 132, 190 114, 196 96 Z"/>
    <!-- bow tie right wing -->
    <path d="M316 96 L 268 113 L 268 139 L 316 150 C 322 132, 322 114, 316 96 Z"/>
    <!-- bow tie knot -->
    <path d="M256 110 L 267 126 L 256 142 L 245 126 Z"/>
    <!-- stars -->
    <g id="s1" transform="translate(256 216)">
      <path d="M0 -20 L4.7 -6.47 L19.02 -6.18 L7.61 2.47 L11.76 16.18 L0 8 L-11.76 16.18 L-7.61 2.47 L-19.02 -6.18 L-4.7 -6.47 Z"/>
    </g>
    <g transform="translate(256 296)">
      <path d="M0 -20 L4.7 -6.47 L19.02 -6.18 L7.61 2.47 L11.76 16.18 L0 8 L-11.76 16.18 L-7.61 2.47 L-19.02 -6.18 L-4.7 -6.47 Z"/>
    </g>
    <g transform="translate(256 376)">
      <path d="M0 -20 L4.7 -6.47 L19.02 -6.18 L7.61 2.47 L11.76 16.18 L0 8 L-11.76 16.18 L-7.61 2.47 L-19.02 -6.18 L-4.7 -6.47 Z"/>
    </g>
  </g>
</svg>
